<svg xmlns="http://www.w3.org/2000/svg" x="0px" y="0px"
width="48" height="48"
viewBox="0 0 172 172"
style=" fill:#000000;"><defs><linearGradient x1="92.76175" y1="74.68383" x2="141.45925" y2="163.056" gradientUnits="userSpaceOnUse" id="color-1_0O9sAXLXDBU5_gr1"><stop offset="0" stop-color="#197a4c"></stop><stop offset="0.209" stop-color="#1b7f50"></stop><stop offset="0.465" stop-color="#208e5a"></stop><stop offset="0.745" stop-color="#29a76c"></stop><stop offset="1" stop-color="#33c481"></stop></linearGradient></defs><g fill="none" fill-rule="nonzero" stroke="none" stroke-width="1" stroke-linecap="butt" stroke-linejoin="miter" stroke-miterlimit="10" stroke-dasharray="" stroke-dashoffset="0" font-family="none" font-weight="none" font-size="none" text-anchor="none" style="mix-blend-mode: normal"><path d="M0,172v-172h172v172z" fill="none"></path><g><path d="M150.36025,157.64875c-0.34042,0 -0.688,-0.05017 -1.032,-0.15408c-48.95192,-14.70242 -66.04442,-71.58783 -66.75033,-74.003c-0.55542,-1.89917 0.5375,-3.88433 2.43667,-4.43975c1.892,-0.54467 3.88792,0.53392 4.44333,2.43308c0.16125,0.55183 16.7485,55.57392 61.93075,69.144c1.89558,0.56975 2.97058,2.56567 2.40083,4.46125c-0.46583,1.55517 -1.88842,2.5585 -3.42925,2.5585z" fill="url(#color-1_0O9sAXLXDBU5_gr1)"></path><g><path d="M66.66075,46.08167c-6.235,-11.72825 -20.80125,-16.18233 -32.5295,-9.94375c-9.87567,5.24958 -14.55908,16.40092 -12.08658,26.79258l63.97325,19.56142c0.00358,0 -14.10758,-26.53458 -19.35717,-36.41025z" fill="#33c481"></path><path d="M105.37867,118.89858c6.235,11.72825 20.80125,16.18233 32.5295,9.94375c9.87567,-5.24958 14.55908,-16.40092 12.08658,-26.79258l-63.97325,-19.56142c0,0.00358 14.10758,26.53817 19.35717,36.41025z" fill="#33c481"></path><path d="M122.42817,63.13117c11.72825,-6.235 16.18233,-20.80125 9.94375,-32.5295c-5.24958,-9.87567 -16.40092,-14.55908 -26.79258,-12.08658l-19.56142,63.97325c0.00358,0.00358 26.53458,-14.10758 36.41025,-19.35717z" fill="#33c481"></path><path d="M49.61125,101.84908c-11.72825,6.235 -16.18233,20.80125 -9.94375,32.5295c5.24958,9.87567 16.40092,14.55908 26.79258,12.08658l19.56142,-63.97325c0,0 -26.53458,14.10758 -36.41025,19.35717z" fill="#33c481"></path><path d="M66.66075,46.08167c-6.235,-11.72825 -1.7845,-26.29092 9.94375,-32.5295c9.87567,-5.24958 21.74008,-2.89892 28.97125,4.96292l-19.55783,63.97325c0.00358,0.00358 -14.10758,-26.531 -19.35717,-36.40667z" fill="#21a366"></path><path d="M105.37867,118.89858c6.235,11.72825 1.7845,26.29092 -9.94375,32.5295c-9.87567,5.24958 -21.74008,2.89892 -28.97125,-4.96292l19.55783,-63.97325c0,0 14.10758,26.53458 19.35717,36.40667z" fill="#21a366"></path><path d="M49.61125,101.84908c-11.72825,6.235 -26.29092,1.7845 -32.5295,-9.94375c-5.24958,-9.87567 -2.89892,-21.74008 4.96292,-28.97125l63.97325,19.55783c0.00358,0 -26.531,14.10758 -36.40667,19.35717z" fill="#21a366"></path><path d="M122.42817,63.13117c11.72825,-6.235 26.29092,-1.7845 32.5295,9.94375c5.24958,9.87567 2.89892,21.74008 -4.96292,28.97125l-63.97325,-19.55783c0,0.00358 26.531,-14.10758 36.40667,-19.35717z" fill="#21a366"></path></g></g></g></svg>