<?xml version="1.0" encoding="UTF-8" standalone="no"?>
<svg
   xmlns:dc="http://purl.org/dc/elements/1.1/"
   xmlns:cc="http://creativecommons.org/ns#"
   xmlns:rdf="http://www.w3.org/1999/02/22-rdf-syntax-ns#"
   xmlns:svg="http://www.w3.org/2000/svg"
   xmlns="http://www.w3.org/2000/svg"
   xmlns:sodipodi="http://sodipodi.sourceforge.net/DTD/sodipodi-0.dtd"
   xmlns:inkscape="http://www.inkscape.org/namespaces/inkscape"
   x="0px"
   y="0px"
   width="48"
   height="48"
   viewBox="0 0 172 172"
   style=" fill:#000000;"
   version="1.1"
   id="svg57"
   sodipodi:docname="goal_bg.svg"
   inkscape:version="1.0.1 (3bc2e813f5, 2020-09-07)">
  <metadata
     id="metadata61">
    <rdf:RDF>
      <cc:Work
         rdf:about="">
        <dc:format>image/svg+xml</dc:format>
        <dc:type
           rdf:resource="http://purl.org/dc/dcmitype/StillImage" />
        <dc:title></dc:title>
      </cc:Work>
    </rdf:RDF>
  </metadata>
  <sodipodi:namedview
     pagecolor="#ffffff"
     bordercolor="#666666"
     borderopacity="1"
     objecttolerance="10"
     gridtolerance="10"
     guidetolerance="10"
     inkscape:pageopacity="0"
     inkscape:pageshadow="2"
     inkscape:window-width="1920"
     inkscape:window-height="1017"
     id="namedview59"
     showgrid="false"
     inkscape:zoom="8.8541667"
     inkscape:cx="20.345367"
     inkscape:cy="36.256705"
     inkscape:window-x="-8"
     inkscape:window-y="-8"
     inkscape:window-maximized="1"
     inkscape:current-layer="svg57" />
  <defs
     id="defs29">
    <linearGradient
       x1="121.83333"
       y1="96.32"
       x2="121.83333"
       y2="170.37675"
       gradientUnits="userSpaceOnUse"
       id="color-1_e4SqDcJZgyCG_gr1">
      <stop
         offset="0"
         stop-color="#2aa4f4"
         id="stop2" />
      <stop
         offset="1"
         stop-color="#007ad9"
         id="stop4" />
    </linearGradient>
    <linearGradient
       x1="41.40542"
       y1="38.40617"
       x2="89.27158"
       y2="169.92167"
       gradientUnits="userSpaceOnUse"
       id="color-2_e4SqDcJZgyCG_gr2">
      <stop
         offset="0"
         stop-color="#33c481"
         id="stop7" />
      <stop
         offset="1"
         stop-color="#21a366"
         id="stop9" />
    </linearGradient>
    <linearGradient
       x1="101.25425"
       y1="51.08758"
       x2="124.77883"
       y2="74.61217"
       gradientUnits="userSpaceOnUse"
       id="color-3_e4SqDcJZgyCG_gr3">
      <stop
         offset="0"
         stop-color="#fed100"
         id="stop12" />
      <stop
         offset="1"
         stop-color="#e36001"
         id="stop14" />
    </linearGradient>
    <linearGradient
       x1="42.86742"
       y1="111.16217"
       x2="42.86742"
       y2="85.75275"
       gradientUnits="userSpaceOnUse"
       id="color-4_e4SqDcJZgyCG_gr4">
      <stop
         offset="0"
         stop-color="#c26715"
         id="stop17" />
      <stop
         offset="0.508"
         stop-color="#b85515"
         id="stop19" />
      <stop
         offset="1"
         stop-color="#ad3f16"
         id="stop21" />
    </linearGradient>
    <linearGradient
       x1="31.5835"
       y1="15.06075"
       x2="57.52683"
       y2="119.3465"
       gradientUnits="userSpaceOnUse"
       id="color-5_e4SqDcJZgyCG_gr5">
      <stop
         offset="0"
         stop-color="#21ad64"
         id="stop24" />
      <stop
         offset="1"
         stop-color="#088242"
         id="stop26" />
    </linearGradient>
  </defs>
  <g
     fill="none"
     fill-rule="nonzero"
     stroke="none"
     stroke-width="1"
     stroke-linecap="butt"
     stroke-linejoin="miter"
     stroke-miterlimit="10"
     stroke-dasharray=""
     stroke-dashoffset="0"
     font-family="none"
     font-weight="none"
     font-size="none"
     text-anchor="none"
     style="mix-blend-mode: normal"
     id="g55">
    <path
       d="M0,172v-172h172v172z"
       fill="none"
       id="path31" />
    <g
       id="g53">
      <path
         d="M17.91667,150.5h136.16667c3.95804,0 7.16667,-3.20863 7.16667,-7.16667v-39.52865c0.00567,-3.95041 -3.19064,-7.15827 -7.14105,-7.16685c-13.56585,-0.00437 -43.87297,0.99061 -68.10895,9.06942c-35.49127,11.8303 -53.75,26.87608 -68.08333,44.79274z"
         fill="#33c481"
         id="path33" />
      <path
         d="M82.41667,114.66667h78.83333v0v28.66667c0,3.95804 -3.20863,7.16667 -7.16667,7.16667h-71.66667v0v-35.83333z"
         fill="url(#color-1_e4SqDcJZgyCG_gr1)"
         id="path35" />
      <path
         d="M146.36161,150.5h-128.44494c-3.95804,0 -7.16667,-3.20863 -7.16667,-7.16667v-39.52865c-0.00567,-3.95041 3.19064,-7.15827 7.14105,-7.16685c13.56586,-0.00437 43.87297,0.99061 68.10895,9.06942c31.49177,10.49727 49.41599,23.52602 63.06907,38.84563c0.92641,1.06041 1.14673,2.56476 0.5633,3.8463c-0.58343,1.28153 -1.86267,2.1032 -3.27076,2.10082z"
         fill="url(#color-2_e4SqDcJZgyCG_gr2)"
         id="path37" />
      <path
         d="M151.75417,142.15083c-15.19333,-17.02083 -33.79083,-28.9175 -59.8775,-38.19833c-1.00333,0.25064 -2.00667,0.53731 -3.01,0.86c-0.9675,0.28667 -1.935,0.57333 -2.86667,0.89583c31.4975,10.49917 49.41417,23.5425 63.06667,38.84333c0.92123,1.05868 1.14135,2.55699 0.56353,3.83589c-0.57782,1.2789 -1.84768,2.10403 -3.25103,2.11244h6.16333c0.14061,-0.21516 0.26059,-0.44311 0.35833,-0.68083c1.19104,-2.55464 0.73957,-5.57385 -1.14667,-7.66833z"
         fill="#000000"
         opacity="0.05"
         id="path39" />
      <path
         d="M150.3925,143.36917c-15.40833,-17.27167 -34.43583,-29.24 -61.52583,-38.55667c-0.9675,0.28667 -1.935,0.57333 -2.86667,0.89583c31.4975,10.49917 49.41417,23.5425 63.06667,38.84333c0.92123,1.05868 1.14135,2.55699 0.56353,3.83589c-0.57782,1.2789 -1.84768,2.10403 -3.25103,2.11244h3.9775c0.37919,-0.41624 0.69329,-0.88739 0.93167,-1.3975c0.87799,-1.91786 0.52535,-4.17472 -0.89583,-5.73333z"
         fill="#000000"
         opacity="0.07"
         id="path41" />
      <path
         d="M114.66667,50.16667c-7.91608,0 -14.33333,6.41725 -14.33333,14.33333c0,7.91608 6.41725,14.33333 14.33333,14.33333c7.91608,0 14.33333,-6.41725 14.33333,-14.33333c-0.00036,-7.91593 -6.4174,-14.33298 -14.33333,-14.33333z"
         fill="url(#color-3_e4SqDcJZgyCG_gr3)"
         id="path43" />
      <path
         d="M35.6804,41.38313h14.37701v67.29676c0.00145,1.32515 -1.07103,2.40088 -2.39617,2.40345h-9.58474c-1.32515,-0.00257 -2.39762,-1.0783 -2.39617,-2.40345z"
         fill="url(#color-4_e4SqDcJZgyCG_gr4)"
         id="path45" />
      <path
         d="M51.85083,98.5775c-0.60917,-0.07167 -1.1825,-0.14333 -1.79167,-0.17935v10.28417c0,1.32594 -1.07489,2.40083 -2.40083,2.40083h-9.5675c-1.32594,0 -2.40083,-1.07489 -2.40083,-2.40083v-11.50232c-0.60917,-0.03583 -1.21833,-0.07167 -1.79167,-0.1075c-0.60917,-0.03583 -1.21833,-0.07167 -1.79167,-0.1075v11.7175c0.00592,3.30251 2.68166,5.97825 5.98417,5.98417h9.5675c3.30251,-0.00592 5.97825,-2.68166 5.98417,-5.98417v-9.85417c-0.60917,-0.1075 -1.1825,-0.17917 -1.79167,-0.25083z"
         fill="#000000"
         opacity="0.05"
         id="path47" />
      <path
         d="M50.05917,98.39833v10.28417c0,1.32594 -1.07489,2.40083 -2.40083,2.40083h-9.5675c-1.32594,0 -2.40083,-1.07489 -2.40083,-2.40083v-11.5025c-0.60917,-0.03583 -1.21833,-0.07167 -1.79167,-0.1075v11.61c0.00296,2.31423 1.87827,4.18954 4.1925,4.1925h9.5675c2.31423,-0.00296 4.18954,-1.87827 4.1925,-4.1925v-10.105c-0.60917,-0.07167 -1.1825,-0.14333 -1.79167,-0.17917z"
         fill="#000000"
         opacity="0.07"
         id="path49" />
      <path
         d="M67.13733,52.37608c4.4977,-4.64805 5.77687,-11.53659 3.24771,-17.48948c-2.52916,-5.9529 -8.37549,-9.81408 -14.84337,-9.80326c-0.06124,0 -0.11768,0.01727 -0.1787,0.01792c-0.85532,-6.17215 -6.13184,-10.76788 -12.36297,-10.76788c-6.23113,0 -11.50765,4.59574 -12.36297,10.76788c-0.06102,-0.00065 -0.11746,-0.01792 -0.1787,-0.01792c-6.46789,-0.01082 -12.31421,3.85036 -14.84337,9.80326c-2.52916,5.9529 -1.25,12.84144 3.24771,17.48948c-6.97238,3.93321 -9.98239,12.40143 -7.05667,19.8529c2.92572,7.45147 10.89326,11.6095 18.6791,9.74809c0.65826,6.3702 6.03436,11.20647 12.43846,11.18948c6.4041,-0.01699 11.75446,-4.8817 12.37892,-11.25531c7.78564,1.94372 15.81102,-2.15832 18.7958,-9.60717c2.98478,-7.44885 0.01262,-15.95764 -6.96094,-19.92799z"
         fill="url(#color-5_e4SqDcJZgyCG_gr5)"
         id="path51" />
    </g>
  </g>
</svg>
