<svg xmlns="http://www.w3.org/2000/svg" x="0px" y="0px"
width="48" height="48"
viewBox="0 0 172 172"
style=" fill:#000000;"><defs><linearGradient x1="188.23967" y1="86" x2="133.80167" y2="86" gradientUnits="userSpaceOnUse" id="color-1_qQprJLS9nCDX_gr1"><stop offset="0" stop-color="#f9f9f9"></stop><stop offset="0.966" stop-color="#c4c9cd"></stop><stop offset="1" stop-color="#c2c8cc"></stop></linearGradient><linearGradient x1="213.85692" y1="35.83333" x2="99.69908" y2="35.83333" gradientUnits="userSpaceOnUse" id="color-2_qQprJLS9nCDX_gr2"><stop offset="0" stop-color="#f9f9f9"></stop><stop offset="0.966" stop-color="#c4c9cd"></stop><stop offset="1" stop-color="#c2c8cc"></stop></linearGradient><linearGradient x1="17.91667" y1="35.83333" x2="89.58333" y2="35.83333" gradientUnits="userSpaceOnUse" id="color-3_qQprJLS9nCDX_gr3"><stop offset="0" stop-color="#2aa4f4"></stop><stop offset="1" stop-color="#007ad9"></stop></linearGradient><linearGradient x1="17.91667" y1="86" x2="125.41667" y2="86" gradientUnits="userSpaceOnUse" id="color-4_qQprJLS9nCDX_gr4"><stop offset="0" stop-color="#2aa4f4"></stop><stop offset="1" stop-color="#007ad9"></stop></linearGradient><linearGradient x1="17.91667" y1="136.16667" x2="64.5" y2="136.16667" gradientUnits="userSpaceOnUse" id="color-5_qQprJLS9nCDX_gr5"><stop offset="0" stop-color="#2aa4f4"></stop><stop offset="1" stop-color="#007ad9"></stop></linearGradient><linearGradient x1="91.375" y1="2.82008" x2="91.375" y2="49.94808" gradientUnits="userSpaceOnUse" id="color-6_qQprJLS9nCDX_gr6"><stop offset="0" stop-color="#a3ffff"></stop><stop offset="0.223" stop-color="#9dfbff"></stop><stop offset="0.53" stop-color="#8bf1ff"></stop><stop offset="0.885" stop-color="#6ee0ff"></stop><stop offset="1" stop-color="#63daff"></stop></linearGradient><linearGradient x1="123.625" y1="65.94767" x2="123.625" y2="99.34433" gradientUnits="userSpaceOnUse" id="color-7_qQprJLS9nCDX_gr7"><stop offset="0" stop-color="#a3ffff"></stop><stop offset="0.223" stop-color="#9dfbff"></stop><stop offset="0.53" stop-color="#8bf1ff"></stop><stop offset="0.885" stop-color="#6ee0ff"></stop><stop offset="1" stop-color="#63daff"></stop></linearGradient><linearGradient x1="66.29167" y1="103.15342" x2="66.29167" y2="150.28142" gradientUnits="userSpaceOnUse" id="color-8_qQprJLS9nCDX_gr8"><stop offset="0" stop-color="#a3ffff"></stop><stop offset="0.223" stop-color="#9dfbff"></stop><stop offset="0.53" stop-color="#8bf1ff"></stop><stop offset="0.885" stop-color="#6ee0ff"></stop><stop offset="1" stop-color="#63daff"></stop></linearGradient><linearGradient x1="238.78617" y1="136.16667" x2="76.83025" y2="136.16667" gradientUnits="userSpaceOnUse" id="color-9_qQprJLS9nCDX_gr9"><stop offset="0" stop-color="#f9f9f9"></stop><stop offset="0.966" stop-color="#c4c9cd"></stop><stop offset="1" stop-color="#c2c8cc"></stop></linearGradient></defs><g fill="none" fill-rule="nonzero" stroke="none" stroke-width="1" stroke-linecap="butt" stroke-linejoin="miter" stroke-miterlimit="10" stroke-dasharray="" stroke-dashoffset="0" font-family="none" font-weight="none" font-size="none" text-anchor="none" style="mix-blend-mode: normal"><path d="M0,172v-172h172v172z" fill="none"></path><g><path d="M132.58333,78.83333h17.91667c1.978,0 3.58333,1.60533 3.58333,3.58333v7.16667c0,1.978 -1.60533,3.58333 -3.58333,3.58333h-17.91667z" fill="url(#color-1_qQprJLS9nCDX_gr1)"></path><path d="M100.33333,28.66667h50.16667c1.978,0 3.58333,1.60533 3.58333,3.58333v7.16667c0,1.978 -1.60533,3.58333 -3.58333,3.58333h-50.16667z" fill="url(#color-2_qQprJLS9nCDX_gr2)"></path><path d="M89.58333,28.66667h-68.08333c-1.978,0 -3.58333,1.60533 -3.58333,3.58333v7.16667c0,1.978 1.60533,3.58333 3.58333,3.58333h68.08333z" fill="url(#color-3_qQprJLS9nCDX_gr3)"></path><path d="M125.41667,78.83333h-103.91667c-1.978,0 -3.58333,1.60533 -3.58333,3.58333v7.16667c0,1.978 1.60533,3.58333 3.58333,3.58333h103.91667z" fill="url(#color-4_qQprJLS9nCDX_gr4)"></path><path d="M64.5,129h-43c-1.978,0 -3.58333,1.60533 -3.58333,3.58333v7.16667c0,1.978 1.60533,3.58333 3.58333,3.58333h43z" fill="url(#color-5_qQprJLS9nCDX_gr5)"></path><path d="M98.54167,50.16667h-14.33333c-0.989,0 -1.79167,-0.80267 -1.79167,-1.79167v-25.08333c0,-0.989 0.80267,-1.79167 1.79167,-1.79167h14.33333c0.989,0 1.79167,0.80267 1.79167,1.79167v25.08333c0,0.989 -0.80267,1.79167 -1.79167,1.79167z" fill="url(#color-6_qQprJLS9nCDX_gr6)"></path><path d="M130.79167,100.33333h-14.33333c-0.989,0 -1.79167,-0.80267 -1.79167,-1.79167v-25.08333c0,-0.989 0.80267,-1.79167 1.79167,-1.79167h14.33333c0.989,0 1.79167,0.80267 1.79167,1.79167v25.08333c0,0.989 -0.80267,1.79167 -1.79167,1.79167z" fill="url(#color-7_qQprJLS9nCDX_gr7)"></path><path d="M73.45833,150.5h-14.33333c-0.989,0 -1.79167,-0.80267 -1.79167,-1.79167v-25.08333c0,-0.989 0.80267,-1.79167 1.79167,-1.79167h14.33333c0.989,0 1.79167,0.80267 1.79167,1.79167v25.08333c0,0.989 -0.80267,1.79167 -1.79167,1.79167z" fill="url(#color-8_qQprJLS9nCDX_gr8)"></path><path d="M75.25,129h75.25c1.978,0 3.58333,1.60533 3.58333,3.58333v7.16667c0,1.978 -1.60533,3.58333 -3.58333,3.58333h-75.25z" fill="url(#color-9_qQprJLS9nCDX_gr9)"></path></g></g></svg>