<svg xmlns="http://www.w3.org/2000/svg" x="0px" y="0px"
width="96" height="96"
viewBox="0 0 172 172"
style=" fill:#000000;"><defs><linearGradient x1="49.46792" y1="51.09833" x2="49.46792" y2="7.16667" gradientUnits="userSpaceOnUse" id="color-1_FXCZgLgKpBk6_gr1"><stop offset="0.002" stop-color="#454545"></stop><stop offset="0.013" stop-color="#464646"></stop><stop offset="0.875" stop-color="#626262"></stop><stop offset="1" stop-color="#6d6d6d"></stop></linearGradient><linearGradient x1="18.5975" y1="20.80483" x2="52.13033" y2="63.50025" gradientUnits="userSpaceOnUse" id="color-2_FXCZgLgKpBk6_gr2"><stop offset="0" stop-color="#cdd2d6"></stop><stop offset="1" stop-color="#acb5bf"></stop></linearGradient><linearGradient x1="122.46042" y1="51.09833" x2="122.46042" y2="7.16667" gradientUnits="userSpaceOnUse" id="color-3_FXCZgLgKpBk6_gr3"><stop offset="0.002" stop-color="#454545"></stop><stop offset="0.013" stop-color="#464646"></stop><stop offset="0.875" stop-color="#626262"></stop><stop offset="1" stop-color="#6d6d6d"></stop></linearGradient><linearGradient x1="155.90008" y1="19.16008" x2="122.1845" y2="60.38992" gradientUnits="userSpaceOnUse" id="color-4_FXCZgLgKpBk6_gr4"><stop offset="0" stop-color="#cdd2d6"></stop><stop offset="1" stop-color="#acb5bf"></stop></linearGradient><linearGradient x1="86" y1="158.11458" x2="86" y2="147.91642" gradientUnits="userSpaceOnUse" id="color-5_FXCZgLgKpBk6_gr5"><stop offset="0" stop-color="#cdd2d6"></stop><stop offset="1" stop-color="#acb5bf"></stop></linearGradient><linearGradient x1="86" y1="84.452" x2="86" y2="33.90192" gradientUnits="userSpaceOnUse" id="color-6_FXCZgLgKpBk6_gr6"><stop offset="0.002" stop-color="#454545"></stop><stop offset="0.013" stop-color="#464646"></stop><stop offset="0.875" stop-color="#626262"></stop><stop offset="1" stop-color="#6d6d6d"></stop></linearGradient><linearGradient x1="86" y1="35.10233" x2="86" y2="110.62108" gradientUnits="userSpaceOnUse" id="color-7_FXCZgLgKpBk6_gr7"><stop offset="0" stop-color="#afb6bc"></stop><stop offset="0.925" stop-color="#9aa0a5"></stop></linearGradient><linearGradient x1="53.75" y1="84.20833" x2="68.08333" y2="84.20833" gradientUnits="userSpaceOnUse" id="color-8_FXCZgLgKpBk6_gr8"><stop offset="0" stop-color="#4c4c4c"></stop><stop offset="1" stop-color="#343434"></stop></linearGradient><linearGradient x1="103.91667" y1="84.20833" x2="118.25" y2="84.20833" gradientUnits="userSpaceOnUse" id="color-9_FXCZgLgKpBk6_gr9"><stop offset="0" stop-color="#4c4c4c"></stop><stop offset="1" stop-color="#343434"></stop></linearGradient><linearGradient x1="86" y1="87.87408" x2="86" y2="167.52083" gradientUnits="userSpaceOnUse" id="color-10_FXCZgLgKpBk6_gr10"><stop offset="0" stop-color="#afb6bc"></stop><stop offset="0.925" stop-color="#9aa0a5"></stop></linearGradient><linearGradient x1="86" y1="137.471" x2="86" y2="120.54692" gradientUnits="userSpaceOnUse" id="color-11_FXCZgLgKpBk6_gr11"><stop offset="0.002" stop-color="#454545"></stop><stop offset="0.013" stop-color="#464646"></stop><stop offset="0.875" stop-color="#626262"></stop><stop offset="1" stop-color="#6d6d6d"></stop></linearGradient></defs><g fill="none" fill-rule="nonzero" stroke="none" stroke-width="1" stroke-linecap="butt" stroke-linejoin="miter" stroke-miterlimit="10" stroke-dasharray="" stroke-dashoffset="0" font-family="none" font-weight="none" font-size="none" text-anchor="none" style="mix-blend-mode: normal"><path d="M0,172v-172h172v172z" fill="none"></path><g><path d="M71.66667,43l-10.4275,8.09833l-0.3225,-0.93167l-27.6275,-30.67333c-1.8275,-2.0425 -5.0525,-1.36167 -6.02,1.11083c3.1175,-9.81833 8.56417,-13.4375 8.56417,-13.4375z" fill="url(#color-1_FXCZgLgKpBk6_gr1)"></path><path d="M61.23917,51.09833l-21.8225,16.985c0,0 -14.33333,-3.58333 -14.33333,-32.25c0,-2.6875 0.17917,-5.16 0.46583,-7.4175c0.07167,-0.5375 0.14333,-1.11083 0.25083,-1.64833c0.35833,-2.15 0.78833,-4.085 1.36167,-5.84083c0.03583,-0.1075 0.07167,-0.215 0.1075,-0.3225c0.9675,-2.4725 4.1925,-3.15333 6.02,-1.11083l27.6275,30.67333z" fill="url(#color-2_FXCZgLgKpBk6_gr2)"></path><path d="M144.5875,20.28167c-1.11083,-2.22167 -4.12083,-2.75917 -5.87667,-0.78833l-27.6275,30.67333l-0.3225,0.93167l-10.4275,-8.09833l35.83333,-35.83333c0,0 3.40417,2.2575 6.37833,8.0625c0.7525,1.46917 1.46917,3.15333 2.0425,5.0525z" fill="url(#color-3_FXCZgLgKpBk6_gr3)"></path><path d="M146.91667,35.83333c0,28.66667 -14.33333,32.25 -14.33333,32.25l-21.8225,-16.985l0.3225,-0.93167l27.6275,-30.67333c1.75583,-1.97083 4.76583,-1.43333 5.87667,0.78833c0.03583,0.03583 0.07167,0.1075 0.07167,0.17917c0.07167,0.1075 0.14333,0.25083 0.17917,0.39417c0.03583,0.14333 0.07167,0.28667 0.1075,0.43c0.25083,0.7525 0.46583,1.57667 0.645,2.43667c0.17917,0.645 0.3225,1.32583 0.43,2.00667c0.1075,0.43 0.17917,0.89583 0.25083,1.36167c0.1075,0.71667 0.215,1.43333 0.28667,2.18583c0.1075,1.03917 0.215,2.07833 0.25083,3.15333c0.07167,1.11083 0.1075,2.22167 0.1075,3.40417z" fill="url(#color-4_FXCZgLgKpBk6_gr4)"></path><path d="M93.16667,158.5625h-14.33333c-5.93758,0 -10.75,-4.81242 -10.75,-10.75v-10.75c0,-1.978 1.60533,-3.58333 3.58333,-3.58333h28.66667c1.978,0 3.58333,1.60533 3.58333,3.58333v10.75c0,5.93758 -4.81242,10.75 -10.75,10.75z" fill="url(#color-5_FXCZgLgKpBk6_gr5)"></path><path d="M144.9315,84.09367l5.5685,-5.26033l-25.40942,-26.82125c-7.63967,-8.06608 -18.00267,-12.59542 -28.80642,-12.59542h-19.522c-11.42008,0 -22.31342,5.05967 -30.02833,13.94275l-25.23383,25.47392l5.5685,5.26033c-4.50067,5.93042 -5.5685,12.65633 -5.5685,12.65633l11.35558,-1.71283c-3.23575,4.68342 -4.56517,8.8795 -4.56517,8.8795c0,0 23.76108,35.83333 57.70958,35.83333c33.9485,0 57.70958,-35.83333 57.70958,-35.83333c0,0 -1.333,-4.19608 -4.56517,-8.8795l11.35558,1.71283c0,0 -1.06783,-6.72592 -5.5685,-12.65633z" fill="url(#color-6_FXCZgLgKpBk6_gr6)"></path><path d="M150.5,96.75l-11.35917,-1.72c3.225,4.69417 4.58667,8.88667 4.58667,8.88667c0,0 -23.79333,35.83333 -57.7275,35.83333c-33.93417,0 -57.7275,-35.83333 -57.7275,-35.83333c0,0 1.36167,-4.1925 4.58667,-8.88667l-11.35917,1.72c0,0 1.075,-6.73667 5.55417,-12.64917l-5.55417,-5.2675l14.5125,-14.65583c6.7725,-4.04917 11.43083,-6.84417 21.32083,-6.84417c17.91667,0 28.66667,10.75 28.66667,21.5c0,-10.75 10.75,-21.5 28.66667,-21.5c10.67833,0 15.76667,3.26083 22.82583,7.74l0.07167,0.07167l12.93583,13.68833l-5.55417,5.2675c4.47917,5.9125 5.55417,12.64917 5.55417,12.64917z" fill="url(#color-7_FXCZgLgKpBk6_gr7)"></path><path d="M63.30675,89.58333c-6.95167,0 -9.55675,-10.75 -9.55675,-10.75c0,0 6.91942,0 9.55675,0c2.63733,0 4.77658,2.408 4.77658,5.375c0,2.967 -2.13925,5.375 -4.77658,5.375z" fill="url(#color-8_FXCZgLgKpBk6_gr8)"></path><path d="M103.91667,84.20833c0,-2.967 2.13925,-5.375 4.77658,-5.375c2.63733,0 9.55675,0 9.55675,0c0,0 -2.60508,10.75 -9.55675,10.75c-2.63733,0 -4.77658,-2.408 -4.77658,-5.375z" fill="url(#color-9_FXCZgLgKpBk6_gr9)"></path><path d="M86,86v0c-9.70725,0 -17.77333,6.22783 -18.51867,14.29033l-2.98133,28.70967h43l-2.98133,-28.70967c-0.74533,-8.0625 -8.81142,-14.29033 -18.51867,-14.29033z" fill="url(#color-10_FXCZgLgKpBk6_gr10)"></path><path d="M93.16667,150.5h-14.33333c-7.91558,0 -14.33333,-6.41775 -14.33333,-14.33333v-7.16667c0,-1.978 1.60533,-3.58333 3.58333,-3.58333h35.83333c1.978,0 3.58333,1.60533 3.58333,3.58333v7.16667c0,7.91558 -6.41775,14.33333 -14.33333,14.33333z" fill="#cdd2d6"></path><path d="M89.58333,139.75h-7.16667c-7.91558,0 -14.33333,-6.41775 -14.33333,-14.33333v0h35.83333v0c0,7.91558 -6.41775,14.33333 -14.33333,14.33333z" fill="url(#color-11_FXCZgLgKpBk6_gr11)"></path></g></g></svg>