<svg xmlns="http://www.w3.org/2000/svg" x="0px" y="0px"
width="48" height="48"
viewBox="0 0 172 172"
style=" fill:#000000;"><g fill="none" fill-rule="nonzero" stroke="none" stroke-width="1" stroke-linecap="butt" stroke-linejoin="miter" stroke-miterlimit="10" stroke-dasharray="" stroke-dashoffset="0" font-family="none" font-weight="none" font-size="none" text-anchor="none" style="mix-blend-mode: normal"><path d="M0,172v-172h172v172z" fill="none"></path><g><path d="M143.33333,150.5h-39.41667v-129h39.41667c7.88333,0 14.33333,6.45 14.33333,14.33333v100.33333c0,7.88333 -6.45,14.33333 -14.33333,14.33333z" fill="#007ad9"></path><path d="M103.91667,150.5h-75.25c-7.88333,0 -14.33333,-6.45 -14.33333,-14.33333v-100.33333c0,-7.88333 6.45,-14.33333 14.33333,-14.33333h75.25c7.91558,0 14.33333,6.41775 14.33333,14.33333v100.33333c0,7.91558 -6.41775,14.33333 -14.33333,14.33333z" fill="#50e6ff"></path><ellipse cx="10" cy="13.5" transform="scale(3.58333,3.58333)" rx="3" ry="3.5" fill="#103f91"></ellipse><ellipse cx="10" cy="34.5" transform="scale(3.58333,3.58333)" rx="3" ry="3.5" fill="#103f91"></ellipse><ellipse cx="26" cy="13.5" transform="scale(3.58333,3.58333)" rx="3" ry="3.5" fill="#103f91"></ellipse><ellipse cx="37" cy="13.5" transform="scale(3.58333,3.58333)" rx="2" ry="3.5" fill="#103f91"></ellipse><ellipse cx="41" cy="34.5" transform="scale(3.58333,3.58333)" rx="2" ry="3.5" fill="#103f91"></ellipse><ellipse cx="26" cy="34.5" transform="scale(3.58333,3.58333)" rx="3" ry="3.5" fill="#103f91"></ellipse></g></g></svg>