<svg xmlns="http://www.w3.org/2000/svg" x="0px" y="0px"
width="48" height="48"
viewBox="0 0 172 172"
style=" fill:#000000;"><defs><linearGradient x1="46.41133" y1="26.62417" x2="123.2165" y2="153.28425" gradientUnits="userSpaceOnUse" id="color-1_OhyAqN0zoUm9_gr1"><stop offset="0" stop-color="#7dd8f3"></stop><stop offset="1" stop-color="#45b0d0"></stop></linearGradient><linearGradient x1="82.41667" y1="133.601" x2="82.41667" y2="150.53583" gradientUnits="userSpaceOnUse" id="color-2_OhyAqN0zoUm9_gr2"><stop offset="0" stop-color="#0176d0"></stop><stop offset="1" stop-color="#16538c"></stop></linearGradient></defs><g fill="none" fill-rule="nonzero" stroke="none" stroke-width="1" stroke-linecap="butt" stroke-linejoin="miter" stroke-miterlimit="10" stroke-dasharray="" stroke-dashoffset="0" font-family="none" font-weight="none" font-size="none" text-anchor="none" style="mix-blend-mode: normal"><path d="M0,172v-172h172v172z" fill="none"></path><g><path d="M129,150.5h-93.16667c-3.95958,0 -7.16667,-3.20708 -7.16667,-7.16667v-114.66667c0,-3.95958 3.20708,-7.16667 7.16667,-7.16667h93.16667c3.95958,0 7.16667,3.20708 7.16667,7.16667v114.66667c0,3.95958 -3.20708,7.16667 -7.16667,7.16667z" fill="url(#color-1_OhyAqN0zoUm9_gr1)"></path><path d="M116.45833,68.08333h-68.08333c-0.989,0 -1.79167,-0.80267 -1.79167,-1.79167v-7.16667c0,-0.989 0.80267,-1.79167 1.79167,-1.79167h68.08333c0.989,0 1.79167,0.80267 1.79167,1.79167v7.16667c0,0.989 -0.80267,1.79167 -1.79167,1.79167z" fill="#057093"></path><path d="M116.45833,89.58333h-68.08333c-0.989,0 -1.79167,-0.80267 -1.79167,-1.79167v-7.16667c0,-0.989 0.80267,-1.79167 1.79167,-1.79167h68.08333c0.989,0 1.79167,0.80267 1.79167,1.79167v7.16667c0,0.989 -0.80267,1.79167 -1.79167,1.79167z" fill="#057093"></path><path d="M116.45833,111.08333h-68.08333c-0.989,0 -1.79167,-0.80267 -1.79167,-1.79167v-7.16667c0,-0.989 0.80267,-1.79167 1.79167,-1.79167h68.08333c0.989,0 1.79167,0.80267 1.79167,1.79167v7.16667c0,0.989 -0.80267,1.79167 -1.79167,1.79167z" fill="#057093"></path><path d="M21.5,136.16667v7.16667c0,3.95958 3.20708,7.16667 7.16667,7.16667h107.5c3.95958,0 7.16667,-3.20708 7.16667,-7.16667v-7.16667c0,-1.978 -1.60533,-3.58333 -3.58333,-3.58333h-114.66667c-1.978,0 -3.58333,1.60533 -3.58333,3.58333z" fill="url(#color-2_OhyAqN0zoUm9_gr2)"></path></g></g></svg>