<svg xmlns="http://www.w3.org/2000/svg" x="0px" y="0px"
width="48" height="48"
viewBox="0 0 172 172"
style=" fill:#000000;"><defs><radialGradient cx="85.79575" cy="67.80025" r="81.57458" gradientUnits="userSpaceOnUse" id="color-1_7rtZYCslX2Mr_gr1"><stop offset="0.655" stop-color="#871233"></stop><stop offset="0.718" stop-color="#8e1336"></stop><stop offset="0.812" stop-color="#a3163e"></stop><stop offset="0.9" stop-color="#bc1948"></stop></radialGradient><linearGradient x1="53.20892" y1="11.08683" x2="118.5295" y2="124.62117" gradientUnits="userSpaceOnUse" id="color-2_7rtZYCslX2Mr_gr2"><stop offset="0" stop-color="#ffda1c"></stop><stop offset="1" stop-color="#feb705"></stop></linearGradient></defs><g fill="none" fill-rule="nonzero" stroke="none" stroke-width="none" stroke-linecap="butt" stroke-linejoin="miter" stroke-miterlimit="10" stroke-dasharray="" stroke-dashoffset="0" font-family="none" font-weight="none" font-size="none" text-anchor="none" style="mix-blend-mode: normal"><path d="M0,172v-172h172v172z" fill="none" stroke="none" stroke-width="1"></path><g><path d="M121.83333,99.49125h-71.66667v65.3385c0,2.78425 3.03867,4.50425 5.42517,3.07092l30.40817,-18.24275l30.40817,18.24275c2.39008,1.43333 5.42517,-0.28667 5.42517,-3.07092z" fill="url(#color-1_7rtZYCslX2Mr_gr1)" stroke="none" stroke-width="1"></path><path d="M147.04208,61.97017l-4.50783,-2.709c-1.92067,-1.15383 -3.21783,-3.04942 -3.8055,-5.21017c-0.01433,-0.03942 -0.01792,-0.07883 -0.03225,-0.12183c-0.59842,-2.17867 -0.41925,-4.50067 0.67725,-6.47508l2.55492,-4.59742c2.61225,-4.70133 -0.72742,-10.49558 -6.10958,-10.58517l-5.30692,-0.09317c-2.25033,-0.03942 -4.33583,-1.03917 -5.91967,-2.62658c-0.01792,-0.01792 -0.03225,-0.03225 -0.05017,-0.05017c-1.59817,-1.58742 -2.59075,-3.6765 -2.63017,-5.92325l-0.08958,-5.30692c-0.08958,-5.37858 -5.88383,-8.72183 -10.58517,-6.10958l-4.59742,2.55492c-1.98158,1.0965 -4.29642,1.27567 -6.47508,0.67725c-0.03942,-0.01433 -0.07883,-0.01792 -0.12183,-0.03225c-2.16075,-0.58767 -4.05633,-1.88483 -5.21017,-3.8055l-2.709,-4.50783c-2.76633,-4.61175 -9.45642,-4.61175 -12.22275,0l-2.69467,4.48992c-1.161,1.935 -3.07808,3.24292 -5.24958,3.83775c-0.02508,0.00717 -0.04658,0.01433 -0.07167,0.01792c-2.20017,0.60558 -4.53292,0.42642 -6.52883,-0.68442l-4.5795,-2.54058c-4.70133,-2.61225 -10.49558,0.72742 -10.58517,6.10958l-0.09675,5.29975c-0.03942,2.24317 -1.03917,4.33583 -2.62658,5.91967c-0.01792,0.01433 -0.03942,0.03225 -0.05017,0.05017c-1.58742,1.59458 -3.6765,2.58717 -5.91967,2.62658l-5.30692,0.08958c-5.37858,0.08958 -8.72183,5.87667 -6.10958,10.58517l2.55492,4.59742c1.0965,1.98158 1.27567,4.29642 0.67725,6.47508c-0.01792,0.03942 -0.02508,0.08242 -0.03942,0.12183c-0.58767,2.16075 -1.88842,4.05633 -3.8055,5.21017l-4.50783,2.709c-4.61175,2.76633 -4.61175,9.45642 0,12.22275l4.50783,2.709c1.92067,1.15383 3.21783,3.04942 3.8055,5.21017c0.01433,0.03942 0.01792,0.07883 0.03225,0.12183c0.59842,2.17867 0.41925,4.50067 -0.67725,6.47508l-2.55492,4.59742c-2.61225,4.70133 0.72742,10.49558 6.10958,10.58517l5.30692,0.08958c2.25033,0.03942 4.33583,1.03917 5.91967,2.62658c0.01792,0.01792 0.03225,0.03225 0.05017,0.05017c1.59458,1.58742 2.58717,3.6765 2.62658,5.91967l0.08958,5.30692c0.08958,5.37858 5.88383,8.72183 10.58517,6.10958l4.59742,-2.55492c1.98158,-1.0965 4.29642,-1.27567 6.47508,-0.67725c0.03942,0.01433 0.08242,0.01792 0.12183,0.03225c2.16075,0.58767 4.05633,1.88483 5.21017,3.8055l2.709,4.50783c2.76633,4.61175 9.45642,4.61175 12.22275,0l2.709,-4.50783c1.15383,-1.92067 3.04942,-3.21783 5.21017,-3.8055c0.03942,-0.01433 0.08242,-0.01792 0.12183,-0.03225c2.17867,-0.59842 4.50067,-0.41925 6.47508,0.67725l4.59742,2.55492c4.70133,2.61225 10.49558,-0.72742 10.58517,-6.10958l0.08958,-5.30692c0.03942,-2.25033 1.03917,-4.33583 2.62658,-5.91967c0.01792,-0.01792 0.03225,-0.03225 0.05017,-0.05017c1.58742,-1.59458 3.6765,-2.58717 5.91967,-2.62658l5.30692,-0.08958c5.37858,-0.08958 8.72183,-5.88383 6.10958,-10.58517l-2.55492,-4.59742c-1.0965,-1.98158 -1.27567,-4.29642 -0.67725,-6.47508c0.01433,-0.03942 0.01792,-0.07883 0.03225,-0.12183c0.58767,-2.16075 1.88483,-4.05633 3.8055,-5.21017l4.50783,-2.709c4.64042,-2.76275 4.64042,-9.44567 0.02867,-12.21558z" fill="url(#color-2_7rtZYCslX2Mr_gr2)" stroke="none" stroke-width="1"></path><path d="M50.16667,68.08333c0,-19.7902 16.04313,-35.83333 35.83333,-35.83333c19.7902,0 35.83333,16.04313 35.83333,35.83333c0,19.7902 -16.04313,35.83333 -35.83333,35.83333c-19.7902,0 -35.83333,-16.04313 -35.83333,-35.83333z" fill="none" stroke="#ffdf26" stroke-width="7.16667"></path></g></g></svg>